<svg aria-hidden="true" style="position:absolute;width:0;height:0;overflow:hidden" xmlns="http://www.w3.org/2000/svg"><defs><symbol id="armchair" viewBox="0 0 32 32"><path d="M24.287 16.852H7.713a1.444 1.444 0 0 1-1.442-1.442V5.002A1.444 1.444 0 0 1 7.713 3.56h16.574a1.444 1.444 0 0 1 1.442 1.442V15.41a1.444 1.444 0 0 1-1.442 1.442zM7.713 4.31a.692.692 0 0 0-.692.692V15.41c0 .382.31.692.692.692h16.574c.382 0 .692-.31.692-.692V5.002a.692.692 0 0 0-.692-.692H7.713z"/><path d="M24.287 26.206H7.713a1.444 1.444 0 0 1-1.442-1.442v-7.22a1.444 1.444 0 0 1 1.442-1.442h16.574a1.444 1.444 0 0 1 1.442 1.442v7.22a1.444 1.444 0 0 1-1.442 1.442zM7.713 16.852a.692.692 0 0 0-.692.692v7.22c0 .382.31.692.692.692h16.574c.382 0 .692-.31.692-.692v-7.22a.692.692 0 0 0-.692-.692H7.713z"/><path d="M30.558 26.206h-4.137a1.444 1.444 0 0 1-1.442-1.442V12.11a1.444 1.444 0 0 1 1.442-1.442h4.137A1.444 1.444 0 0 1 32 12.11v12.653a1.444 1.444 0 0 1-1.442 1.442zm-4.137-14.788a.692.692 0 0 0-.692.692v12.653c0 .382.31.692.692.692h4.137c.382 0 .692-.31.692-.692V12.11a.692.692 0 0 0-.692-.692h-4.137zM5.579 26.206H1.442A1.444 1.444 0 0 1 0 24.764V12.111a1.444 1.444 0 0 1 1.442-1.442h4.137a1.444 1.444 0 0 1 1.442 1.442v12.653a1.444 1.444 0 0 1-1.442 1.442zM1.442 11.418a.692.692 0 0 0-.692.692v12.653c0 .382.31.692.692.692h4.137c.382 0 .692-.31.692-.692V12.11a.692.692 0 0 0-.692-.692H1.442z"/><path d="M25.354 21.529H6.646a.375.375 0 0 1 0-.75h18.708a.375.375 0 0 1 0 .75zM3.51 28.44a1.351 1.351 0 0 1-1.313-1.025l-.372-1.494a.376.376 0 0 1 .364-.466h2.642a.375.375 0 0 1 .364.466l-.372 1.494a1.35 1.35 0 0 1-1.312 1.025zm-.841-2.234.256 1.028a.603.603 0 0 0 1.17 0l.256-1.028H2.669zM28.49 28.44a1.351 1.351 0 0 1-1.313-1.025l-.372-1.493a.376.376 0 0 1 .364-.466h2.642a.375.375 0 0 1 .364.466l-.372 1.493a1.35 1.35 0 0 1-1.313 1.025zm-.842-2.234.256 1.028a.603.603 0 0 0 1.17 0l.256-1.028h-1.682z"/></symbol><symbol id="bedroom" viewBox="0 0 32 32"><path d="M27.099 10.803H4.901a.375.375 0 0 1-.375-.375V2.639c0-.207.168-.375.375-.375h22.198c.207 0 .375.168.375.375v7.789a.375.375 0 0 1-.375.375zm-21.823-.75h21.448V3.014H5.276v7.039z"/><path d="M25.378 10.803H6.622a.375.375 0 0 1-.375-.375V4.36c0-.207.168-.375.375-.375h18.756c.207 0 .375.168.375.375v6.068a.375.375 0 0 1-.375.375zm-18.381-.75h18.006V4.735H6.997v5.318z"/><path d="M14.869 10.803H7.753a1.508 1.508 0 0 1-1.506-1.506V5.491a1.508 1.508 0 0 1 1.506-1.506h7.116a1.508 1.508 0 0 1 1.506 1.506v3.806a1.508 1.508 0 0 1-1.506 1.506zM7.753 4.735a.757.757 0 0 0-.756.756v3.806c0 .417.339.755.756.756h7.116a.757.757 0 0 0 .756-.756V5.491a.757.757 0 0 0-.756-.756H7.753z"/><path d="M24.247 10.803h-7.116a1.508 1.508 0 0 1-1.506-1.506V5.491a1.508 1.508 0 0 1 1.506-1.506h7.116a1.508 1.508 0 0 1 1.506 1.506v3.806a1.508 1.508 0 0 1-1.506 1.506zm-7.116-6.068a.757.757 0 0 0-.756.756v3.806c0 .417.339.755.756.756h7.116a.757.757 0 0 0 .756-.756V5.491a.757.757 0 0 0-.756-.756h-7.116z"/><path d="M27.371 29.736H4.63a1.508 1.508 0 0 1-1.506-1.506V11.559a1.508 1.508 0 0 1 1.506-1.506h22.741a1.508 1.508 0 0 1 1.506 1.506V28.23a1.508 1.508 0 0 1-1.506 1.506zM4.629 10.803a.757.757 0 0 0-.756.756V28.23c0 .417.339.755.756.756H27.37a.757.757 0 0 0 .756-.756V11.559a.757.757 0 0 0-.756-.756H4.629zM27.515 3.014H4.485a1.364 1.364 0 0 1-1.362-1.362v-.291A1.364 1.364 0 0 1 4.485-.001h23.03c.752.001 1.361.61 1.362 1.362v.291a1.364 1.364 0 0 1-1.362 1.362zM4.485.75a.613.613 0 0 0-.612.612v.291c0 .338.274.611.612.612h23.03a.613.613 0 0 0 .612-.612v-.291a.613.613 0 0 0-.612-.612H4.485z"/><path d="M27.515 32H4.485a1.364 1.364 0 0 1-1.362-1.362v-.291a1.364 1.364 0 0 1 1.362-1.362h23.03c.752.001 1.361.61 1.362 1.362v.291A1.364 1.364 0 0 1 27.515 32zm-23.03-2.264a.613.613 0 0 0-.612.612v.291c0 .338.274.611.612.612h23.03a.613.613 0 0 0 .612-.612v-.291a.613.613 0 0 0-.612-.612H4.485z"/></symbol><symbol id="commode" viewBox="0 0 32 32"><path d="M29.934 13.464H2.065a.375.375 0 0 1-.375-.375V4.938c0-.207.168-.375.375-.375h27.869c.207 0 .375.168.375.375v8.151a.375.375 0 0 1-.375.375zm-27.493-.75H29.56V5.313H2.441v7.401z"/><path d="M29.934 21.615H2.065a.375.375 0 0 1-.375-.375v-8.151c0-.207.168-.375.375-.375h27.869c.207 0 .375.168.375.375v8.151a.375.375 0 0 1-.375.375zm-27.493-.75H29.56v-7.401H2.441v7.401z"/><path d="M29.934 29.766H2.065a.375.375 0 0 1-.375-.375V21.24c0-.207.168-.375.375-.375h27.869c.207 0 .375.168.375.375v8.151a.375.375 0 0 1-.375.375zm-27.493-.75H29.56v-7.401H2.441v7.401zM16.701 9.388h-1.403a.375.375 0 0 1 0-.75h1.403a.375.375 0 0 1 0 .75zM16.701 17.539h-1.403a.375.375 0 0 1 0-.75h1.403a.375.375 0 0 1 0 .75z"/><path d="M16.701 25.69h-1.403a.375.375 0 0 1 0-.75h1.403a.375.375 0 0 1 0 .75zM31 5.313H1a1.002 1.002 0 0 1-1-1V3.234a1.002 1.002 0 0 1 1-1h30c.552.001.999.448 1 1v1.079a1.002 1.002 0 0 1-1 1zM1 2.984a.25.25 0 0 0-.25.25v1.079c0 .138.112.25.25.25h30a.25.25 0 0 0 .25-.25V3.234a.25.25 0 0 0-.25-.25H1z"/></symbol><symbol id="kitchen" viewBox="0 0 32 32"><path d="M21.692 29.162H10.308a.375.375 0 0 1-.375-.375v-8.718c0-.207.168-.375.375-.375h11.384c.207 0 .375.168.375.375v8.718a.375.375 0 0 1-.375.375zm-11.009-.75h10.634v-7.968H10.683v7.968z"/><path d="M21.692 30.766H10.308a.375.375 0 0 1-.375-.375v-1.605c0-.207.168-.375.375-.375h11.384c.207 0 .375.168.375.375v1.605a.375.375 0 0 1-.375.375zm-11.009-.75h10.634v-.855H10.683v.855zM21.692 20.443H10.308a.375.375 0 0 1-.375-.375v-3.696c0-.207.168-.375.375-.375h11.384c.207 0 .375.168.375.375v3.696a.375.375 0 0 1-.375.375zm-11.009-.75h10.634v-2.946H10.683v2.946z"/><path d="M16 19.435a1.215 1.215 0 1 1 0-2.43 1.215 1.215 0 0 1 0 2.43zm0-1.68a.465.465 0 1 0 0 .93.465.465 0 0 0 0-.93zM19.157 19.435a1.215 1.215 0 1 1 0-2.43 1.215 1.215 0 0 1 0 2.43zm0-1.68a.465.465 0 1 0 0 .93.465.465 0 0 0 0-.93zM12.843 19.435a1.215 1.215 0 1 1 0-2.43 1.215 1.215 0 0 1 0 2.43zm0-1.68a.465.465 0 1 0 0 .93.465.465 0 0 0 0-.93zM19.491 22.636H12.51a.882.882 0 0 1 0-1.764h6.981a.882.882 0 1 1 0 1.764h-.001zm-6.982-1.014a.132.132 0 1 0 0 .264h6.981a.132.132 0 1 0 0-.264h-6.981z"/><path d="M19.157 27.964h-6.315a.375.375 0 0 1-.375-.375V22.26c0-.207.168-.375.375-.375h6.315c.207 0 .375.168.375.375v5.329a.375.375 0 0 1-.375.375zm-5.939-.75h5.565v-4.579h-5.565v4.579zM13.501 16.747a.375.375 0 0 1-.375-.375v-.931a.375.375 0 0 1 .75 0v.931a.375.375 0 0 1-.375.375zM15.279 16.747a.375.375 0 0 1-.375-.375v-.556h-.5a.375.375 0 0 1 0-.75h.875c.207 0 .375.168.375.375v.931a.375.375 0 0 1-.375.375zM11.723 16.747a.375.375 0 0 1-.375-.375v-.931c0-.207.168-.375.375-.375h.875a.375.375 0 0 1 0 .75h-.5v.556a.375.375 0 0 1-.375.375zM18.499 16.747a.375.375 0 0 1-.375-.375v-.931a.375.375 0 0 1 .75 0v.931a.375.375 0 0 1-.375.375zM16.721 16.747a.375.375 0 0 1-.375-.375v-.931c0-.207.168-.375.375-.375h.875a.375.375 0 0 1 0 .75h-.5v.556a.375.375 0 0 1-.375.375zM20.277 16.747a.375.375 0 0 1-.375-.375v-.556h-.5a.375.375 0 0 1 0-.75h.875c.207 0 .375.168.375.375v.931a.375.375 0 0 1-.375.375zM23.505 18.113h-.671a.375.375 0 0 1 0-.75h.671a.375.375 0 0 1 0 .75z"/><path d="M24.646 30.766h-2.954a.375.375 0 0 1-.375-.375V16.372c0-.207.168-.375.375-.375h2.954c.207 0 .375.168.375.375v14.019a.375.375 0 0 1-.375.375zm-2.579-.75h2.204V16.747h-2.204v13.269z"/><path d="M31.625 23.757h-6.979a.375.375 0 0 1-.375-.375v-7.01c0-.207.168-.375.375-.375h6.979c.207 0 .375.168.375.375v7.01a.375.375 0 0 1-.375.375zm-6.604-.75h6.229v-6.26h-6.229v6.26z"/><path d="M29.035 18.113h-1.799a.375.375 0 0 1 0-.75h1.799a.375.375 0 0 1 0 .75zM6.241 18.113H4.442a.375.375 0 0 1 0-.75h1.799a.375.375 0 0 1 0 .75zM31.625 30.766h-6.979a.375.375 0 0 1-.375-.375v-7.01c0-.207.168-.375.375-.375h6.979c.207 0 .375.168.375.375v7.01a.375.375 0 0 1-.375.375zm-6.604-.75h6.229v-6.26h-6.229v6.26z"/><path d="M29.035 25.122h-1.799a.375.375 0 0 1 0-.75h1.799a.375.375 0 0 1 0 .75zM5.341 30.766H.375A.375.375 0 0 1 0 30.391V20.068c0-.207.168-.375.375-.375h4.966c.207 0 .375.168.375.375v10.323a.375.375 0 0 1-.375.375zm-4.591-.75h4.216v-9.573H.75v9.573z"/><path d="M10.308 30.766H5.342a.375.375 0 0 1-.375-.375V20.068c0-.207.168-.375.375-.375h4.966c.207 0 .375.168.375.375v10.323a.375.375 0 0 1-.375.375zm-4.592-.75h4.216v-9.573H5.716v9.573z"/><path d="M6.527 26.229a.375.375 0 0 1-.375-.375v-1.248a.375.375 0 0 1 .75 0v1.248a.375.375 0 0 1-.375.375zM4.156 26.229a.375.375 0 0 1-.375-.375v-1.248a.375.375 0 0 1 .75 0v1.248a.375.375 0 0 1-.375.375zM10.308 20.443H.375A.375.375 0 0 1 0 20.068v-3.696c0-.207.168-.375.375-.375h9.933c.207 0 .375.168.375.375v3.696a.375.375 0 0 1-.375.375zm-9.558-.75h9.183v-2.946H.75v2.946zM21.269 8.889H10.73a.8.8 0 0 1-.798-.798V7.014c0-.44.357-.797.798-.798h10.539c.44 0 .797.357.798.798v1.077c0 .44-.357.797-.798.798zM10.731 6.966a.048.048 0 0 0-.048.048v1.077c0 .026.021.048.048.048H21.27a.048.048 0 0 0 .048-.048V7.014a.048.048 0 0 0-.048-.048H10.731z"/><path d="M20.488 6.966h-8.975a.79.79 0 0 1-.487-1.412l.288-.225a4.694 4.694 0 0 0 1.813-3.72c0-.207.168-.375.375-.375H18.5c.207 0 .375.168.375.375a4.695 4.695 0 0 0 1.813 3.72l.288.225a.79.79 0 0 1-.486 1.412zm-6.624-4.982a5.436 5.436 0 0 1-2.088 3.935l-.288.225c-.017.014-.021.039-.007.056a.04.04 0 0 0 .032.015h8.975a.04.04 0 0 0 .04-.04.044.044 0 0 0-.015-.032l-.288-.225a5.436 5.436 0 0 1-2.088-3.935h-4.273zM30.464 8.889h-5.968a.94.94 0 0 1 0-1.88h5.968a.94.94 0 0 1 0 1.88zm-5.967-1.13a.19.19 0 1 0 0 .38h5.968a.19.19 0 1 0 0-.38h-5.968zM7.503 8.889H1.535a.94.94 0 0 1 0-1.88h5.968a.94.94 0 0 1 0 1.88zm-5.967-1.13a.19.19 0 1 0 0 .38h5.968a.19.19 0 1 0 0-.38H1.536z"/><path d="M6.905 7.759H5.38a.375.375 0 0 1-.375-.375V6.095c0-.207.168-.375.375-.375h1.525c.207 0 .375.168.375.375v1.289a.375.375 0 0 1-.375.375zm-1.151-.75h.775V6.47h-.775v.539z"/><path d="M7.264 6.47H5.02a.375.375 0 0 1 0-.75h2.244a.375.375 0 0 1 0 .75zM3.66 7.759H2.135a.375.375 0 0 1-.375-.375V6.095c0-.207.168-.375.375-.375H3.66c.207 0 .375.168.375.375v1.289a.375.375 0 0 1-.375.375zm-1.15-.75h.775V6.47H2.51v.539z"/><path d="M4.019 6.47H1.775a.375.375 0 0 1 0-.75h2.244a.375.375 0 0 1 0 .75zM6.905 6.47H5.38a.375.375 0 0 1-.375-.375V4.806c0-.207.168-.375.375-.375h1.525c.207 0 .375.168.375.375v1.289a.375.375 0 0 1-.375.375zm-1.151-.75h.775v-.539h-.775v.539z"/><path d="M7.264 5.181H5.02a.375.375 0 0 1 0-.75h2.244a.375.375 0 0 1 0 .75zM3.66 6.47H2.135a.375.375 0 0 1-.375-.375V4.806c0-.207.168-.375.375-.375H3.66c.207 0 .375.168.375.375v1.289a.375.375 0 0 1-.375.375zm-1.15-.75h.775v-.539H2.51v.539z"/><path d="M4.019 5.181H1.775a.375.375 0 0 1 0-.75h2.244a.375.375 0 0 1 0 .75zM27.48 7.759a2.42 2.42 0 0 1-2.049-3.708.376.376 0 0 1 .317-.175h3.464c.129 0 .249.066.317.175a2.42 2.42 0 0 1-2.049 3.708zm-1.51-3.133a1.671 1.671 0 1 0 3.022.001H25.97z"/><path d="M27.445 4.626a.375.375 0 0 1-.375-.375V1.838a.375.375 0 0 1 .75 0v2.413a.375.375 0 0 1-.375.375z"/><path d="M27.445 4.626a.375.375 0 0 1-.265-.64l1.298-1.298a.375.375 0 0 1 .53.53L27.71 4.516a.376.376 0 0 1-.265.11z"/><path d="M27.445 4.626a.372.372 0 0 1-.265-.11l-1.298-1.298a.375.375 0 1 1 .524-.536l.006.006 1.298 1.298a.375.375 0 0 1-.265.64zM19.474 15.816h-1.829a1.88 1.88 0 0 1-1.878-1.879v-.881c0-.207.168-.375.375-.375h4.836c.207 0 .375.168.375.375v.881a1.882 1.882 0 0 1-1.878 1.879zm-2.957-2.385v.507a1.13 1.13 0 0 0 1.128 1.128h1.829a1.129 1.129 0 0 0 1.128-1.128v-.507h-4.086z"/><path d="M21.692 14.092h-.714a.375.375 0 0 1 0-.75h.714a.375.375 0 0 1 0 .75zM16.02 14.092h-.714a.375.375 0 0 1 0-.75h.714a.375.375 0 0 1 0 .75z"/><path d="M20.978 13.431h-4.836a.375.375 0 0 1-.309-.587c.525-.763 1.57-1.238 2.727-1.238s2.202.474 2.727 1.238a.374.374 0 0 1-.309.587zm-3.829-.75h2.822a3.228 3.228 0 0 0-2.822 0z"/><path d="M18.102 12.385a.373.373 0 0 1-.249-.095 1.065 1.065 0 1 1 1.415 0 .375.375 0 1 1-.502-.557l.004-.003a.315.315 0 1 0-.419-.001.374.374 0 0 1-.249.655zM4.449 16.747H2.865a.375.375 0 0 1-.375-.375v-4.028c0-.207.168-.375.375-.375h1.584c.207 0 .375.168.375.375v4.028a.375.375 0 0 1-.375.375zm-1.209-.75h.834v-3.278H3.24v3.278z"/><path d="M2.865 16.747H1.281a.375.375 0 0 1-.375-.375v-4.028c0-.207.168-.375.375-.375h1.584c.207 0 .375.168.375.375v4.028a.375.375 0 0 1-.375.375zm-1.209-.75h.834v-3.278h-.834v3.278zM7.928 16.747h-.707a1.298 1.298 0 0 1-1.296-1.296v-1.315c0-.207.168-.375.375-.375h2.55c.207 0 .375.168.375.375v1.315a1.298 1.298 0 0 1-1.296 1.296zm-1.254-2.236v.94c0 .302.245.546.546.546h.707a.546.546 0 0 0 .546-.546v-.94h-1.8z"/><path d="M9.068 14.511H6.08a.708.708 0 0 1-.708-.708v-.389c0-.391.317-.708.708-.708h2.988c.391 0 .708.317.708.708v.389a.708.708 0 0 1-.708.708zm-2.946-.75h2.905v-.306H6.122v.306zM24.95 16.747h-1.931a.375.375 0 0 1-.375-.375v-2.639c0-.207.168-.375.375-.375h1.931c.207 0 .375.168.375.375v2.639a.375.375 0 0 1-.375.375zm-1.555-.75h1.181v-1.889h-1.181v1.889z"/><path d="M24.95 14.108h-1.931a.375.375 0 0 1-.375-.375V12.58c0-.207.168-.375.375-.375h1.931c.207 0 .375.168.375.375v1.153a.375.375 0 0 1-.375.375zm-1.555-.75h1.181v-.403h-1.181v.403zM29.58 15.479c-.613 0-1.093-.59-1.093-1.343s.48-1.343 1.093-1.343 1.093.59 1.093 1.343-.48 1.343-1.093 1.343zm0-1.936c-.162 0-.343.253-.343.593s.181.593.343.593.343-.253.343-.593c0-.339-.181-.593-.343-.593z"/><path d="M29.58 13.536a.376.376 0 0 1-.366-.291l-.573-2.5a.963.963 0 1 1 1.878 0l-.573 2.5a.376.376 0 0 1-.366.291zm0-3.22a.213.213 0 0 0-.208.261l.208.906.208-.906a.212.212 0 0 0-.208-.26zM26.883 13.536a.376.376 0 0 1-.366-.291l-.573-2.5a.963.963 0 1 1 1.878 0l-.573 2.5a.376.376 0 0 1-.366.291zm0-3.22a.213.213 0 0 0-.208.261l.208.906.208-.906a.212.212 0 0 0-.208-.26z"/><path d="M27.744 14.748h-1.723a.374.374 0 0 1-.371-.322 1.507 1.507 0 0 1 .347-1.205c.242-.28.565-.44.886-.44s.644.16.886.44c.285.332.411.772.346 1.205a.375.375 0 0 1-.371.322zm-1.333-.75h.942a.71.71 0 0 0-.152-.285c-.095-.11-.221-.181-.32-.181s-.224.071-.32.181a.727.727 0 0 0-.151.285z"/></symbol><symbol id="sofa" viewBox="0 0 32 32"><path d="M14.933 27.897H5.365a1.444 1.444 0 0 1-1.442-1.442v-3.717a1.444 1.444 0 0 1 1.442-1.442h9.568a1.444 1.444 0 0 1 1.442 1.442v3.717a1.444 1.444 0 0 1-1.442 1.442zm-9.568-5.851a.692.692 0 0 0-.692.692v3.717c0 .382.31.692.692.692h9.568c.382 0 .692-.31.692-.692v-3.717a.692.692 0 0 0-.692-.692H5.365z"/><path d="M3.231 27.897H1.443a1.444 1.444 0 0 1-1.442-1.442v-7.116a1.444 1.444 0 0 1 1.442-1.442h1.788a1.444 1.444 0 0 1 1.442 1.442v7.116a1.444 1.444 0 0 1-1.442 1.442zm-1.789-9.25a.692.692 0 0 0-.692.692v7.116c0 .382.31.692.692.692H3.23c.382 0 .692-.31.692-.692v-7.116a.692.692 0 0 0-.692-.692H1.442z"/><path d="M27.702 24.972H4.297a.375.375 0 0 1 0-.75h23.405a.375.375 0 0 1 0 .75zM14.933 22.046H5.365a1.444 1.444 0 0 1-1.442-1.442v-5.711a1.444 1.444 0 0 1 1.442-1.442h9.568a1.444 1.444 0 0 1 1.442 1.442v5.711a1.444 1.444 0 0 1-1.442 1.442zm-9.568-7.845a.692.692 0 0 0-.692.692v5.711c0 .382.31.692.692.692h9.568c.382 0 .692-.31.692-.692v-5.711a.692.692 0 0 0-.692-.692H5.365z"/><path d="M26.635 22.046h-9.568a1.444 1.444 0 0 1-1.442-1.442v-5.711a1.444 1.444 0 0 1 1.442-1.442h9.568a1.444 1.444 0 0 1 1.442 1.442v5.711a1.444 1.444 0 0 1-1.442 1.442zm-9.568-7.845a.692.692 0 0 0-.692.692v5.711c0 .382.31.692.692.692h9.568c.382 0 .692-.31.692-.692v-5.711a.692.692 0 0 0-.692-.692h-9.568z"/><path d="M26.635 27.897h-9.568a1.444 1.444 0 0 1-1.442-1.442v-3.717a1.444 1.444 0 0 1 1.442-1.442h9.568a1.444 1.444 0 0 1 1.442 1.442v3.717a1.444 1.444 0 0 1-1.442 1.442zm-9.568-5.851a.692.692 0 0 0-.692.692v3.717c0 .382.31.692.692.692h9.568c.382 0 .692-.31.692-.692v-3.717a.692.692 0 0 0-.692-.692h-9.568z"/><path d="M30.558 27.897H28.77a1.444 1.444 0 0 1-1.442-1.442v-7.116a1.444 1.444 0 0 1 1.442-1.442h1.788A1.444 1.444 0 0 1 32 19.339v7.116a1.444 1.444 0 0 1-1.442 1.442zm-1.789-9.25a.692.692 0 0 0-.692.692v7.116c0 .382.31.692.692.692h1.788c.382 0 .692-.31.692-.692v-7.116a.692.692 0 0 0-.692-.692h-1.788zM16.877 22.046h-1.753a.375.375 0 0 1 0-.75h1.753a.375.375 0 0 1 0 .75zM22.864 12.364H9.136a.375.375 0 0 1-.375-.375V3.08c0-.207.168-.375.375-.375h13.728c.207 0 .375.168.375.375v8.909a.375.375 0 0 1-.375.375zm-13.353-.75h12.978v-8.16H9.511v8.16z"/><path d="M21.615 11.115h-11.23a.375.375 0 0 1-.375-.375V4.329c0-.207.168-.375.375-.375h11.23c.207 0 .375.168.375.375v6.411a.375.375 0 0 1-.375.375zm-10.855-.75h10.48V4.704H10.76v5.661z"/><path d="M11.729 9.741a.375.375 0 0 1-.265-.64l1.928-1.928a.375.375 0 0 1 .53 0l1.17 1.17a.375.375 0 0 1-.53.53l-.905-.905-1.663 1.663a.376.376 0 0 1-.265.11z"/><path d="M20.271 9.722a.372.372 0 0 1-.265-.11l-1.369-1.37-1.54-1.54-.241-.24-.227-.227-2.087 2.087a.375.375 0 0 1-.53-.53l2.352-2.352a.375.375 0 0 1 .53 0l.492.492.241.241 1.54 1.54 1.369 1.37a.375.375 0 0 1-.265.64z"/><path d="M18.902 8.352a.372.372 0 0 1-.265-.11l-1.541-1.541a.375.375 0 0 1-.082-.407 1.557 1.557 0 1 1 2.03 2.03.363.363 0 0 1-.142.028zM17.83 6.375l1.134 1.134a.805.805 0 1 0-1.134-1.134zM29.664 29.295a.984.984 0 0 1-.957-.748l-.233-.934a.376.376 0 0 1 .364-.466h1.653a.375.375 0 0 1 .364.466l-.233.934a.985.985 0 0 1-.957.748zm-.347-1.398.117.468a.236.236 0 0 0 .459 0l.117-.468h-.693zM2.336 29.295a.984.984 0 0 1-.957-.748l-.233-.934a.376.376 0 0 1 .364-.466h1.653a.375.375 0 0 1 .364.466l-.233.934a.985.985 0 0 1-.957.748zm-.346-1.398.117.468a.236.236 0 0 0 .459 0l.117-.468H1.99z"/></symbol><symbol id="wardrobe" viewBox="0 0 32 32"><path d="M26.485 32H5.515a.375.375 0 0 1-.375-.375V.375c0-.207.168-.375.375-.375h20.97c.207 0 .375.168.375.375v31.25a.375.375 0 0 1-.375.375zM5.89 31.25h20.22V.75H5.89v30.5z"/><path d="M16 22.878c-.207 0-.375-.12-.375-.268V.268C15.625.12 15.793 0 16 0s.375.12.375.268V22.61c0 .148-.168.268-.375.268zM16 32H5.515a.375.375 0 0 1-.375-.375v-4.561c0-.207.168-.375.375-.375H16c.207 0 .375.168.375.375v4.561A.375.375 0 0 1 16 32zm-10.11-.75h9.735v-3.811H5.89v3.811z"/><path d="M16 27.439H5.515a.375.375 0 0 1-.375-.375v-4.561c0-.207.168-.375.375-.375H16c.207 0 .375.168.375.375v4.561a.375.375 0 0 1-.375.375zm-10.11-.75h9.735v-3.811H5.89v3.811z"/><path d="M11.285 25.159h-1.056a.375.375 0 0 1 0-.75h1.056a.375.375 0 0 1 0 .75zM13.79 12.273a.375.375 0 0 1-.375-.375v-.918a.375.375 0 0 1 .75 0v.918a.375.375 0 0 1-.375.375zM18.21 16.834a.375.375 0 0 1-.375-.375v-.918a.375.375 0 0 1 .75 0v.918a.375.375 0 0 1-.375.375zM11.285 29.72h-1.056a.375.375 0 0 1 0-.75h1.056a.375.375 0 0 1 0 .75z"/></symbol></defs></svg>