<svg aria-hidden="true" style="position:absolute;width:0;height:0;overflow:hidden" xmlns="http://www.w3.org/2000/svg"><defs><symbol id="facebook" viewBox="0 0 32 32"><path d="M17.668 25.408v-8.705h2.403l.318-3h-2.721l.004-1.501c0-.782.074-1.202 1.198-1.202h1.502V8h-2.403c-2.887 0-3.903 1.455-3.903 3.902v1.801h-1.799v3h1.799v8.705h3.602z"/></symbol><symbol id="instagram" viewBox="0 0 32 32"><path d="M12.482 7.518c.91-.041 1.201-.052 3.519-.052h-.003c2.318 0 2.608.01 3.518.052.908.042 1.529.185 2.073.396.562.218 1.036.509 1.511.984s.766.95.985 1.512c.21.543.354 1.163.396 2.071.041.91.052 1.201.052 3.519s-.011 2.608-.052 3.518c-.043.908-.187 1.528-.396 2.071-.219.561-.51 1.037-.985 1.511s-.95.767-1.511.985c-.543.211-1.164.355-2.072.396-.91.041-1.2.052-3.518.052s-2.608-.01-3.518-.052c-.908-.042-1.529-.185-2.072-.396-.561-.218-1.037-.51-1.511-.985s-.766-.95-.984-1.512c-.211-.543-.355-1.163-.396-2.071-.041-.91-.052-1.2-.052-3.518s.011-2.609.051-3.519c.041-.908.185-1.528.396-2.071.219-.561.51-1.037.985-1.512s.95-.766 1.512-.984c.543-.211 1.163-.355 2.071-.396zm3.234 1.486h-.481v-.002c-1.59.002-1.896.012-2.683.048-.832.038-1.284.177-1.585.294-.398.155-.683.34-.981.639s-.484.583-.639.981c-.117.301-.256.752-.294 1.584-.041.9-.049 1.168-.049 3.447s.008 2.549.049 3.449c.038.832.177 1.284.294 1.584.155.398.34.682.639.981s.583.484.981.638c.301.117.753.256 1.585.294.9.041 1.17.05 3.448.05s2.549-.009 3.448-.05c.832-.038 1.284-.177 1.584-.294.398-.155.682-.34.981-.638s.484-.582.639-.98c.117-.3.256-.752.294-1.584.041-.9.05-1.17.05-3.447s-.009-2.548-.05-3.447c-.038-.832-.177-1.284-.294-1.584-.155-.398-.34-.683-.639-.981s-.582-.484-.981-.638c-.301-.117-.752-.256-1.584-.294-.9-.041-1.17-.049-3.448-.049h-.284zM11.619 16a4.382 4.382 0 1 1 8.764 0 4.382 4.382 0 0 1-8.764 0zm7.226 0a2.844 2.844 0 1 0-5.689 0 2.844 2.844 0 0 0 5.689 0zm.687-4.555a1.025 1.025 0 1 1 2.047.001 1.025 1.025 0 0 1-2.047-.001z"/></symbol><symbol id="logo" viewBox="0 0 53 32"><path fill="#44c697" style="fill:var(--color1, #44c697)" d="M13.582 12.582H37.71V9.177H13.582V3.432H37.71V.027H11.724a1.57 1.57 0 0 0-1.57 1.56v16.767h3.428v-5.771z"/><path fill="#1e2e36" style="fill:var(--color2, #1e2e36)" d="M41.636 0h-1.884v18.327h3.428V1.56C43.206.702 42.5 0 41.636 0z"/><path fill="#1e2e36" style="fill:var(--color2, #1e2e36)" d="M45.901 11.932v9.098H7.432v-9.098H1.963A1.954 1.954 0 0 0 0 13.882v5.173c0 1.092.89 1.95 1.963 1.95h1.256l.55 6.395v4.601h1.413L6.831 27.4h39.673l1.649 4.601h1.413V27.4l.55-6.395h1.256a1.954 1.954 0 0 0 1.963-1.95v-5.173c0-1.092-.89-1.95-1.963-1.95h-5.469z"/></symbol><symbol id="map-pin" viewBox="0 0 32 32"><path fill="#fff" style="fill:var(--color3, #fff)" d="M16 2.333a11 11 0 0 0-11 11c0 4.265 2.766 8.354 5.726 11.479A39.556 39.556 0 0 0 16 29.443a39.556 39.556 0 0 0 5.274-4.631C24.234 21.687 27 17.598 27 13.333a11 11 0 0 0-11-11zm0 28.334-.555.832-.003-.002-.038-.025-.108-.074a37.412 37.412 0 0 1-1.794-1.343 41.446 41.446 0 0 1-4.228-3.865C6.234 22.981 3 18.404 3 13.336a13 13 0 0 1 26 0c0 5.069-3.234 9.646-6.274 12.854a41.446 41.446 0 0 1-5.625 4.927c-.17.123-.304.217-.397.281l-.108.074-.038.025-.003.002s-.001.001-.556-.831zm0 0 .555.832a1 1 0 0 1-1.11 0l.555-.832z"/><path fill="#fff" style="fill:var(--color3, #fff)" d="M16 10.333a3 3 0 1 0 0 6 3 3 0 0 0 0-6zm-5 3a5 5 0 1 1 10.001.001A5 5 0 0 1 11 13.333z"/></symbol><symbol id="shopping-cart" viewBox="0 0 31 32"><path d="M11.613 27.29a.323.323 0 1 0 0 .646.323.323 0 0 0 0-.646zm-2.258.323a2.258 2.258 0 1 1 4.516 0 2.258 2.258 0 0 1-4.516 0zM25.806 27.29a.323.323 0 1 0 0 .646.323.323 0 0 0 0-.646zm-2.258.323a2.258 2.258 0 1 1 4.516 0 2.258 2.258 0 0 1-4.516 0zM.323 1.806c0-.534.433-.968.968-.968h5.161c.461 0 .858.326.949.778L8.537 7.29h21.141a.97.97 0 0 1 .951 1.149l-2.066 10.833a3.55 3.55 0 0 1-3.538 2.857H12.5a3.547 3.547 0 0 1-3.538-2.856L6.805 8.494a.68.68 0 0 1-.018-.092L5.66 2.773H1.292a.968.968 0 0 1-.968-.968zm8.601 7.42 1.935 9.67a1.613 1.613 0 0 0 1.613 1.298h12.58a1.617 1.617 0 0 0 1.612-1.295l.001-.003 1.844-9.67H8.925z"/></symbol><symbol id="telegram" viewBox="0 0 32 32"><path d="M13.339 19.255v-.001l7.419-6.695c.326-.289-.071-.43-.503-.168l-9.156 5.777-3.955-1.234c-.854-.262-.86-.848.192-1.27l15.412-5.943c.704-.32 1.383.169 1.115 1.246l-2.625 12.368c-.183.879-.714 1.089-1.45.683l-3.998-2.954-1.922 1.869-.018.018c-.215.209-.393.382-.782.382l.272-4.078z"/></symbol><symbol id="phone" viewBox="0 0 32 32"><path d="M24 0H6C4.9 0 4 .9 4 2v28c0 1.1.9 2 2 2h18c1.1 0 2-.9 2-2V2c0-1.1-.9-2-2-2zm-9 30.556a1.556 1.556 0 1 1 0-3.113 1.556 1.556 0 0 1 0 3.113zM24 26H6V4h18v22z"/></symbol></defs></svg>