<svg aria-hidden="true" style="position: absolute; width: 0; height: 0; overflow: hidden;" version="1.1" xmlns="http://www.w3.org/2000/svg" xmlns:xlink="http://www.w3.org/1999/xlink">
<defs>
<symbol id="facebook" viewBox="0 0 32 32">
<path d="M17.668 25.408v-8.705h2.403l0.318-3h-2.721l0.004-1.501c0-0.782 0.074-1.202 1.198-1.202h1.502v-3h-2.403c-2.887 0-3.903 1.455-3.903 3.902v1.801h-1.799v3h1.799v8.705h3.602z"></path>
</symbol>
<symbol id="instagram" viewBox="0 0 32 32">
<path d="M12.482 7.518c0.91-0.041 1.201-0.052 3.519-0.052h-0.003c2.318 0 2.608 0.010 3.518 0.052 0.908 0.042 1.529 0.185 2.073 0.396 0.562 0.218 1.036 0.509 1.511 0.984s0.766 0.95 0.985 1.512c0.21 0.543 0.354 1.163 0.396 2.071 0.041 0.91 0.052 1.201 0.052 3.519s-0.011 2.608-0.052 3.518c-0.043 0.908-0.187 1.528-0.396 2.071-0.219 0.561-0.51 1.037-0.985 1.511s-0.95 0.767-1.511 0.985c-0.543 0.211-1.164 0.355-2.072 0.396-0.91 0.041-1.2 0.052-3.518 0.052s-2.608-0.010-3.518-0.052c-0.908-0.042-1.529-0.185-2.072-0.396-0.561-0.218-1.037-0.51-1.511-0.985s-0.766-0.95-0.984-1.512c-0.211-0.543-0.355-1.163-0.396-2.071-0.041-0.91-0.052-1.2-0.052-3.518s0.011-2.609 0.051-3.519c0.041-0.908 0.185-1.528 0.396-2.071 0.219-0.561 0.51-1.037 0.985-1.512s0.95-0.766 1.512-0.984c0.543-0.211 1.163-0.355 2.071-0.396zM15.716 9.004c-0.173-0-0.332-0-0.481 0v-0.002c-1.59 0.002-1.896 0.012-2.683 0.048-0.832 0.038-1.284 0.177-1.585 0.294-0.398 0.155-0.683 0.34-0.981 0.639s-0.484 0.583-0.639 0.981c-0.117 0.301-0.256 0.752-0.294 1.584-0.041 0.9-0.049 1.168-0.049 3.447s0.008 2.549 0.049 3.449c0.038 0.832 0.177 1.284 0.294 1.584 0.155 0.398 0.34 0.682 0.639 0.981s0.583 0.484 0.981 0.638c0.301 0.117 0.753 0.256 1.585 0.294 0.9 0.041 1.17 0.050 3.448 0.050s2.549-0.009 3.448-0.050c0.832-0.038 1.284-0.177 1.584-0.294 0.398-0.155 0.682-0.34 0.981-0.638s0.484-0.582 0.639-0.98c0.117-0.3 0.256-0.752 0.294-1.584 0.041-0.9 0.050-1.17 0.050-3.447s-0.009-2.548-0.050-3.447c-0.038-0.832-0.177-1.284-0.294-1.584-0.155-0.398-0.34-0.683-0.639-0.981s-0.582-0.484-0.981-0.638c-0.301-0.117-0.752-0.256-1.584-0.294-0.9-0.041-1.17-0.049-3.448-0.049l-0.284-0zM11.619 16c0-2.42 1.962-4.382 4.382-4.382s4.382 1.962 4.382 4.382c0 2.42-1.961 4.381-4.382 4.381s-4.382-1.961-4.382-4.381zM18.845 16c0-1.571-1.274-2.844-2.844-2.844s-2.844 1.273-2.844 2.844c0 1.571 1.273 2.844 2.844 2.844s2.844-1.274 2.844-2.844zM19.532 11.445c0-0.566 0.459-1.024 1.024-1.024v-0c0.565 0 1.024 0.459 1.024 1.024s-0.459 1.024-1.024 1.024-1.024-0.459-1.024-1.024z"></path>
</symbol>
<symbol id="logo" viewBox="0 0 53 32">
<path fill="#44c697" style="fill: var(--color1, #44c697)" d="M13.582 12.582h24.128v-3.405h-24.128v-5.745h24.128v-3.405h-25.986c-0.864 0-1.57 0.702-1.57 1.56v16.767h3.428v-5.771z"></path>
<path fill="#1e2e36" style="fill: var(--color2, #1e2e36)" d="M41.636 0h-1.884v18.327h3.428v-16.767c0.026-0.858-0.68-1.56-1.544-1.56z"></path>
<path fill="#1e2e36" style="fill: var(--color2, #1e2e36)" d="M45.901 11.932v9.098h-38.469v-9.098h-5.469c-1.099 0-1.963 0.884-1.963 1.95v5.173c0 1.092 0.89 1.95 1.963 1.95h1.256l0.55 6.395v4.601h1.413l1.649-4.601h39.673l1.649 4.601h1.413v-4.601l0.55-6.395h1.256c1.099 0 1.963-0.884 1.963-1.95v-5.173c0-1.092-0.89-1.95-1.963-1.95h-5.469z"></path>
</symbol>
<symbol id="map-pin" viewBox="0 0 32 32">
<path fill="#fff" style="fill: var(--color3, #fff)" d="M16 2.333c-2.917 0-5.715 1.159-7.778 3.222s-3.222 4.861-3.222 7.778c0 4.265 2.766 8.354 5.726 11.479 1.46 1.541 2.923 2.801 4.022 3.676 0.51 0.406 0.94 0.728 1.252 0.955 0.313-0.227 0.742-0.549 1.252-0.955 1.099-0.875 2.562-2.135 4.022-3.676 2.96-3.125 5.726-7.214 5.726-11.479 0-2.917-1.159-5.715-3.222-7.778s-4.861-3.222-7.778-3.222zM16 30.667c-0.555 0.832-0.555 0.832-0.555 0.832l-0.003-0.002-0.038-0.025c-0.025-0.017-0.061-0.042-0.108-0.074-0.093-0.064-0.227-0.159-0.397-0.281-0.339-0.245-0.821-0.603-1.397-1.062-1.151-0.916-2.688-2.239-4.228-3.865-3.040-3.209-6.274-7.786-6.274-12.854 0-3.448 1.37-6.754 3.808-9.192s5.745-3.808 9.192-3.808c3.448 0 6.754 1.37 9.192 3.808s3.808 5.745 3.808 9.192c0 5.069-3.234 9.646-6.274 12.854-1.54 1.626-3.077 2.949-4.228 3.865-0.576 0.459-1.057 0.817-1.397 1.062-0.17 0.123-0.304 0.217-0.397 0.281-0.047 0.032-0.083 0.057-0.108 0.074l-0.038 0.025-0.003 0.002c0 0-0.001 0.001-0.556-0.831zM16 30.667l0.555 0.832c-0.336 0.224-0.774 0.224-1.11-0l0.555-0.832z"></path>
<path fill="#fff" style="fill: var(--color3, #fff)" d="M16 10.333c-1.657 0-3 1.343-3 3s1.343 3 3 3 3-1.343 3-3c0-1.657-1.343-3-3-3zM11 13.333c0-2.761 2.239-5 5-5s5 2.239 5 5c0 2.761-2.239 5-5 5s-5-2.239-5-5z"></path>
</symbol>
<symbol id="shopping-cart" viewBox="0 0 31 32">
<path d="M11.613 27.29c-0.178 0-0.323 0.144-0.323 0.323s0.144 0.323 0.323 0.323c0.178 0 0.323-0.144 0.323-0.323s-0.144-0.323-0.323-0.323zM9.355 27.613c0-1.247 1.011-2.258 2.258-2.258s2.258 1.011 2.258 2.258c0 1.247-1.011 2.258-2.258 2.258s-2.258-1.011-2.258-2.258z"></path>
<path d="M25.806 27.29c-0.178 0-0.323 0.144-0.323 0.323s0.144 0.323 0.323 0.323c0.178 0 0.323-0.144 0.323-0.323s-0.144-0.323-0.323-0.323zM23.548 27.613c0-1.247 1.011-2.258 2.258-2.258s2.258 1.011 2.258 2.258c0 1.247-1.011 2.258-2.258 2.258s-2.258-1.011-2.258-2.258z"></path>
<path d="M0.323 1.806c0-0.534 0.433-0.968 0.968-0.968h5.161c0.461 0 0.858 0.326 0.949 0.778l1.136 5.674h21.141c0.288 0 0.562 0.129 0.746 0.351s0.259 0.515 0.205 0.798l-2.066 10.833c-0.162 0.817-0.607 1.551-1.255 2.073-0.646 0.52-1.454 0.797-2.283 0.784h-12.525c-0.829 0.014-1.637-0.264-2.283-0.784-0.648-0.522-1.093-1.255-1.255-2.072l-2.157-10.779c-0.008-0.030-0.014-0.060-0.018-0.092l-1.127-5.629h-4.368c-0.534 0-0.968-0.433-0.968-0.968zM8.924 9.226l1.935 9.67c0.074 0.371 0.276 0.705 0.571 0.942s0.664 0.364 1.042 0.356l0.019-0 12.561 0c0.378 0.007 0.747-0.119 1.042-0.356 0.294-0.237 0.496-0.569 0.57-0.939l0.001-0.003 1.844-9.67h-19.584z"></path>
</symbol>
<symbol id="telegram" viewBox="0 0 32 32">
<path d="M13.339 19.255l0-0.001 7.419-6.695c0.326-0.289-0.071-0.43-0.503-0.168l-9.156 5.777-3.955-1.234c-0.854-0.262-0.86-0.848 0.192-1.27l15.412-5.943c0.704-0.32 1.383 0.169 1.115 1.246l-2.625 12.368c-0.183 0.879-0.714 1.089-1.45 0.683l-3.998-2.954-1.922 1.869c-0.006 0.006-0.012 0.012-0.018 0.018-0.215 0.209-0.393 0.382-0.782 0.382l0.272-4.078z"></path>
</symbol>
<symbol id="phone" viewBox="0 0 32 32">
<path d="M24 0h-18c-1.1 0-2 0.9-2 2v28c0 1.1 0.9 2 2 2h18c1.1 0 2-0.9 2-2v-28c0-1.1-0.9-2-2-2zM15 30.556c-0.859 0-1.556-0.697-1.556-1.556s0.697-1.556 1.556-1.556 1.556 0.697 1.556 1.556-0.697 1.556-1.556 1.556zM24 26h-18v-22h18v22z"></path>
</symbol>
</defs>
</svg>
